<svg xmlns="http://www.w3.org/2000/svg" version="1.1" xmlns:xlink="http://www.w3.org/1999/xlink" xmlns:svgjs="http://svgjs.com/svgjs" width="1440" height="860" preserveAspectRatio="none" viewBox="0 0 1440 860"><g mask="url(&quot;#SvgjsMask1002&quot;)" fill="none"><rect width="1440" height="860" x="0" y="0" fill="#0e2a47"></rect><path d="M74.84 -41.45L139.79 -3.95L139.79 71.05L74.84 108.55L9.89 71.05L9.89 -3.95zM139.79 71.05L204.75 108.55L204.75 183.55L139.79 221.05L74.84 183.55L74.84 108.55zM74.84 183.55L139.79 221.05L139.79 296.05L74.84 333.55L9.89 296.05L9.89 221.05zM139.79 296.05L204.75 333.55L204.75 408.55L139.79 446.05L74.84 408.55L74.84 333.55zM139.79 521.05L204.75 558.55L204.75 633.55L139.79 671.05L74.84 633.55L74.84 558.55zM269.7 71.05L334.65 108.55L334.65 183.55L269.7 221.05L204.75 183.55L204.75 108.55zM269.7 296.05L334.65 333.55L334.65 408.55L269.7 446.05L204.75 408.55L204.75 333.55zM204.75 408.55L269.7 446.05L269.7 521.05L204.75 558.55L139.79 521.05L139.79 446.05zM334.65 -41.45L399.61 -3.95L399.61 71.05L334.65 108.55L269.7 71.05L269.7 -3.95zM334.65 408.55L399.61 446.05L399.61 521.05L334.65 558.55L269.7 521.05L269.7 446.05zM399.61 521.05L464.56 558.55L464.56 633.55L399.61 671.05L334.65 633.55L334.65 558.55zM334.65 858.55L399.61 896.05L399.61 971.05L334.65 1008.55L269.7 971.05L269.7 896.05zM529.52 71.05L594.47 108.55L594.47 183.55L529.52 221.05L464.56 183.55L464.56 108.55zM464.56 183.55L529.52 221.05L529.52 296.05L464.56 333.55L399.61 296.05L399.61 221.05zM529.52 296.05L594.47 333.55L594.47 408.55L529.52 446.05L464.56 408.55L464.56 333.55zM529.52 521.05L594.47 558.55L594.47 633.55L529.52 671.05L464.56 633.55L464.56 558.55zM464.56 858.55L529.52 896.05L529.52 971.05L464.56 1008.55L399.61 971.05L399.61 896.05zM659.42 71.05L724.38 108.55L724.38 183.55L659.42 221.05L594.47 183.55L594.47 108.55zM659.42 296.05L724.38 333.55L724.38 408.55L659.42 446.05L594.47 408.55L594.47 333.55zM594.47 408.55L659.42 446.05L659.42 521.05L594.47 558.55L529.52 521.05L529.52 446.05zM659.42 521.05L724.38 558.55L724.38 633.55L659.42 671.05L594.47 633.55L594.47 558.55zM594.47 633.55L659.42 671.05L659.42 746.05L594.47 783.55L529.52 746.05L529.52 671.05zM724.38 -41.45L789.33 -3.95L789.33 71.05L724.38 108.55L659.42 71.05L659.42 -3.95zM724.38 183.55L789.33 221.05L789.33 296.05L724.38 333.55L659.42 296.05L659.42 221.05zM724.38 408.55L789.33 446.05L789.33 521.05L724.38 558.55L659.42 521.05L659.42 446.05zM789.33 521.05L854.29 558.55L854.29 633.55L789.33 671.05L724.38 633.55L724.38 558.55zM724.38 633.55L789.33 671.05L789.33 746.05L724.38 783.55L659.42 746.05L659.42 671.05zM789.33 746.05L854.29 783.55L854.29 858.55L789.33 896.05L724.38 858.55L724.38 783.55zM919.24 71.05L984.19 108.55L984.19 183.55L919.24 221.05L854.28 183.55L854.28 108.55zM919.24 296.05L984.19 333.55L984.19 408.55L919.24 446.05L854.28 408.55L854.28 333.55zM854.28 408.55L919.24 446.05L919.24 521.05L854.28 558.55L789.33 521.05L789.33 446.05zM854.28 858.55L919.24 896.05L919.24 971.05L854.28 1008.55L789.33 971.05L789.33 896.05zM1049.15 71.05L1114.1 108.55L1114.1 183.55L1049.15 221.05L984.19 183.55L984.19 108.55zM1049.15 296.05L1114.1 333.55L1114.1 408.55L1049.15 446.05L984.19 408.55L984.19 333.55zM1049.15 521.05L1114.1 558.55L1114.1 633.55L1049.15 671.05L984.19 633.55L984.19 558.55zM984.19 633.55L1049.15 671.05L1049.15 746.05L984.19 783.55L919.24 746.05L919.24 671.05zM1049.15 746.05L1114.1 783.55L1114.1 858.55L1049.15 896.05L984.19 858.55L984.19 783.55zM1114.1 -41.45L1179.05 -3.95L1179.05 71.05L1114.1 108.55L1049.15 71.05L1049.15 -3.95zM1114.1 183.55L1179.05 221.05L1179.05 296.05L1114.1 333.55L1049.15 296.05L1049.15 221.05zM1114.1 408.55L1179.05 446.05L1179.05 521.05L1114.1 558.55L1049.15 521.05L1049.15 446.05zM1179.05 746.05L1244.01 783.55L1244.01 858.55L1179.05 896.05L1114.1 858.55L1114.1 783.55zM1114.1 858.55L1179.05 896.05L1179.05 971.05L1114.1 1008.55L1049.15 971.05L1049.15 896.05zM1244.01 408.55L1308.96 446.05L1308.96 521.05L1244.01 558.55L1179.05 521.05L1179.05 446.05zM1373.91 -41.45L1438.87 -3.95L1438.87 71.05L1373.91 108.55L1308.96 71.05L1308.96 -3.95zM1438.87 296.05L1503.82 333.55L1503.82 408.55L1438.87 446.05L1373.91 408.55L1373.91 333.55zM1438.87 521.05L1503.82 558.55L1503.82 633.55L1438.87 671.05L1373.91 633.55L1373.91 558.55zM1373.91 633.55L1438.87 671.05L1438.87 746.05L1373.91 783.55L1308.96 746.05L1308.96 671.05zM1373.91 858.55L1438.87 896.05L1438.87 971.05L1373.91 1008.55L1308.96 971.05L1308.96 896.05zM1503.82 183.55L1568.78 221.05L1568.78 296.05L1503.82 333.55L1438.87 296.05L1438.87 221.05zM1503.82 408.55L1568.78 446.05L1568.78 521.05L1503.82 558.55L1438.87 521.05L1438.87 446.05zM1568.78 521.05L1633.73 558.55L1633.73 633.55L1568.78 671.05L1503.82 633.55L1503.82 558.55zM1503.82 858.55L1568.78 896.05L1568.78 971.05L1503.82 1008.55L1438.87 971.05L1438.87 896.05z" stroke="#03305d" stroke-width="2"></path><path d="M67.34 -41.45 a7.5 7.5 0 1 0 15 0 a7.5 7.5 0 1 0 -15 0zM132.29 -3.95 a7.5 7.5 0 1 0 15 0 a7.5 7.5 0 1 0 -15 0zM132.29 71.05 a7.5 7.5 0 1 0 15 0 a7.5 7.5 0 1 0 -15 0zM67.34 108.55 a7.5 7.5 0 1 0 15 0 a7.5 7.5 0 1 0 -15 0zM2.39 71.05 a7.5 7.5 0 1 0 15 0 a7.5 7.5 0 1 0 -15 0zM2.39 -3.95 a7.5 7.5 0 1 0 15 0 a7.5 7.5 0 1 0 -15 0zM197.25 108.55 a7.5 7.5 0 1 0 15 0 a7.5 7.5 0 1 0 -15 0zM197.25 183.55 a7.5 7.5 0 1 0 15 0 a7.5 7.5 0 1 0 -15 0zM132.29 221.05 a7.5 7.5 0 1 0 15 0 a7.5 7.5 0 1 0 -15 0zM67.34 183.55 a7.5 7.5 0 1 0 15 0 a7.5 7.5 0 1 0 -15 0zM132.29 296.05 a7.5 7.5 0 1 0 15 0 a7.5 7.5 0 1 0 -15 0zM67.34 333.55 a7.5 7.5 0 1 0 15 0 a7.5 7.5 0 1 0 -15 0zM2.39 296.05 a7.5 7.5 0 1 0 15 0 a7.5 7.5 0 1 0 -15 0zM2.39 221.05 a7.5 7.5 0 1 0 15 0 a7.5 7.5 0 1 0 -15 0zM197.25 333.55 a7.5 7.5 0 1 0 15 0 a7.5 7.5 0 1 0 -15 0zM197.25 408.55 a7.5 7.5 0 1 0 15 0 a7.5 7.5 0 1 0 -15 0zM132.29 446.05 a7.5 7.5 0 1 0 15 0 a7.5 7.5 0 1 0 -15 0zM67.34 408.55 a7.5 7.5 0 1 0 15 0 a7.5 7.5 0 1 0 -15 0zM132.29 521.05 a7.5 7.5 0 1 0 15 0 a7.5 7.5 0 1 0 -15 0zM197.25 558.55 a7.5 7.5 0 1 0 15 0 a7.5 7.5 0 1 0 -15 0zM197.25 633.55 a7.5 7.5 0 1 0 15 0 a7.5 7.5 0 1 0 -15 0zM132.29 671.05 a7.5 7.5 0 1 0 15 0 a7.5 7.5 0 1 0 -15 0zM67.34 633.55 a7.5 7.5 0 1 0 15 0 a7.5 7.5 0 1 0 -15 0zM67.34 558.55 a7.5 7.5 0 1 0 15 0 a7.5 7.5 0 1 0 -15 0zM262.2 71.05 a7.5 7.5 0 1 0 15 0 a7.5 7.5 0 1 0 -15 0zM327.15 108.55 a7.5 7.5 0 1 0 15 0 a7.5 7.5 0 1 0 -15 0zM327.15 183.55 a7.5 7.5 0 1 0 15 0 a7.5 7.5 0 1 0 -15 0zM262.2 221.05 a7.5 7.5 0 1 0 15 0 a7.5 7.5 0 1 0 -15 0zM262.2 296.05 a7.5 7.5 0 1 0 15 0 a7.5 7.5 0 1 0 -15 0zM327.15 333.55 a7.5 7.5 0 1 0 15 0 a7.5 7.5 0 1 0 -15 0zM327.15 408.55 a7.5 7.5 0 1 0 15 0 a7.5 7.5 0 1 0 -15 0zM262.2 446.05 a7.5 7.5 0 1 0 15 0 a7.5 7.5 0 1 0 -15 0zM262.2 521.05 a7.5 7.5 0 1 0 15 0 a7.5 7.5 0 1 0 -15 0zM327.15 -41.45 a7.5 7.5 0 1 0 15 0 a7.5 7.5 0 1 0 -15 0zM392.11 -3.95 a7.5 7.5 0 1 0 15 0 a7.5 7.5 0 1 0 -15 0zM392.11 71.05 a7.5 7.5 0 1 0 15 0 a7.5 7.5 0 1 0 -15 0zM262.2 -3.95 a7.5 7.5 0 1 0 15 0 a7.5 7.5 0 1 0 -15 0zM392.11 446.05 a7.5 7.5 0 1 0 15 0 a7.5 7.5 0 1 0 -15 0zM392.11 521.05 a7.5 7.5 0 1 0 15 0 a7.5 7.5 0 1 0 -15 0zM327.15 558.55 a7.5 7.5 0 1 0 15 0 a7.5 7.5 0 1 0 -15 0zM457.06 558.55 a7.5 7.5 0 1 0 15 0 a7.5 7.5 0 1 0 -15 0zM457.06 633.55 a7.5 7.5 0 1 0 15 0 a7.5 7.5 0 1 0 -15 0zM392.11 671.05 a7.5 7.5 0 1 0 15 0 a7.5 7.5 0 1 0 -15 0zM327.15 633.55 a7.5 7.5 0 1 0 15 0 a7.5 7.5 0 1 0 -15 0zM327.15 858.55 a7.5 7.5 0 1 0 15 0 a7.5 7.5 0 1 0 -15 0zM392.11 896.05 a7.5 7.5 0 1 0 15 0 a7.5 7.5 0 1 0 -15 0zM392.11 971.05 a7.5 7.5 0 1 0 15 0 a7.5 7.5 0 1 0 -15 0zM327.15 1008.55 a7.5 7.5 0 1 0 15 0 a7.5 7.5 0 1 0 -15 0zM262.2 971.05 a7.5 7.5 0 1 0 15 0 a7.5 7.5 0 1 0 -15 0zM262.2 896.05 a7.5 7.5 0 1 0 15 0 a7.5 7.5 0 1 0 -15 0zM522.02 71.05 a7.5 7.5 0 1 0 15 0 a7.5 7.5 0 1 0 -15 0zM586.97 108.55 a7.5 7.5 0 1 0 15 0 a7.5 7.5 0 1 0 -15 0zM586.97 183.55 a7.5 7.5 0 1 0 15 0 a7.5 7.5 0 1 0 -15 0zM522.02 221.05 a7.5 7.5 0 1 0 15 0 a7.5 7.5 0 1 0 -15 0zM457.06 183.55 a7.5 7.5 0 1 0 15 0 a7.5 7.5 0 1 0 -15 0zM457.06 108.55 a7.5 7.5 0 1 0 15 0 a7.5 7.5 0 1 0 -15 0zM522.02 296.05 a7.5 7.5 0 1 0 15 0 a7.5 7.5 0 1 0 -15 0zM457.06 333.55 a7.5 7.5 0 1 0 15 0 a7.5 7.5 0 1 0 -15 0zM392.11 296.05 a7.5 7.5 0 1 0 15 0 a7.5 7.5 0 1 0 -15 0zM392.11 221.05 a7.5 7.5 0 1 0 15 0 a7.5 7.5 0 1 0 -15 0zM586.97 333.55 a7.5 7.5 0 1 0 15 0 a7.5 7.5 0 1 0 -15 0zM586.97 408.55 a7.5 7.5 0 1 0 15 0 a7.5 7.5 0 1 0 -15 0zM522.02 446.05 a7.5 7.5 0 1 0 15 0 a7.5 7.5 0 1 0 -15 0zM457.06 408.55 a7.5 7.5 0 1 0 15 0 a7.5 7.5 0 1 0 -15 0zM522.02 521.05 a7.5 7.5 0 1 0 15 0 a7.5 7.5 0 1 0 -15 0zM586.97 558.55 a7.5 7.5 0 1 0 15 0 a7.5 7.5 0 1 0 -15 0zM586.97 633.55 a7.5 7.5 0 1 0 15 0 a7.5 7.5 0 1 0 -15 0zM522.02 671.05 a7.5 7.5 0 1 0 15 0 a7.5 7.5 0 1 0 -15 0zM457.06 858.55 a7.5 7.5 0 1 0 15 0 a7.5 7.5 0 1 0 -15 0zM522.02 896.05 a7.5 7.5 0 1 0 15 0 a7.5 7.5 0 1 0 -15 0zM522.02 971.05 a7.5 7.5 0 1 0 15 0 a7.5 7.5 0 1 0 -15 0zM457.06 1008.55 a7.5 7.5 0 1 0 15 0 a7.5 7.5 0 1 0 -15 0zM651.92 71.05 a7.5 7.5 0 1 0 15 0 a7.5 7.5 0 1 0 -15 0zM716.88 108.55 a7.5 7.5 0 1 0 15 0 a7.5 7.5 0 1 0 -15 0zM716.88 183.55 a7.5 7.5 0 1 0 15 0 a7.5 7.5 0 1 0 -15 0zM651.92 221.05 a7.5 7.5 0 1 0 15 0 a7.5 7.5 0 1 0 -15 0zM651.92 296.05 a7.5 7.5 0 1 0 15 0 a7.5 7.5 0 1 0 -15 0zM716.88 333.55 a7.5 7.5 0 1 0 15 0 a7.5 7.5 0 1 0 -15 0zM716.88 408.55 a7.5 7.5 0 1 0 15 0 a7.5 7.5 0 1 0 -15 0zM651.92 446.05 a7.5 7.5 0 1 0 15 0 a7.5 7.5 0 1 0 -15 0zM651.92 521.05 a7.5 7.5 0 1 0 15 0 a7.5 7.5 0 1 0 -15 0zM716.88 558.55 a7.5 7.5 0 1 0 15 0 a7.5 7.5 0 1 0 -15 0zM716.88 633.55 a7.5 7.5 0 1 0 15 0 a7.5 7.5 0 1 0 -15 0zM651.92 671.05 a7.5 7.5 0 1 0 15 0 a7.5 7.5 0 1 0 -15 0zM651.92 746.05 a7.5 7.5 0 1 0 15 0 a7.5 7.5 0 1 0 -15 0zM586.97 783.55 a7.5 7.5 0 1 0 15 0 a7.5 7.5 0 1 0 -15 0zM522.02 746.05 a7.5 7.5 0 1 0 15 0 a7.5 7.5 0 1 0 -15 0zM716.88 -41.45 a7.5 7.5 0 1 0 15 0 a7.5 7.5 0 1 0 -15 0zM781.83 -3.95 a7.5 7.5 0 1 0 15 0 a7.5 7.5 0 1 0 -15 0zM781.83 71.05 a7.5 7.5 0 1 0 15 0 a7.5 7.5 0 1 0 -15 0zM651.92 -3.95 a7.5 7.5 0 1 0 15 0 a7.5 7.5 0 1 0 -15 0zM781.83 221.05 a7.5 7.5 0 1 0 15 0 a7.5 7.5 0 1 0 -15 0zM781.83 296.05 a7.5 7.5 0 1 0 15 0 a7.5 7.5 0 1 0 -15 0zM781.83 446.05 a7.5 7.5 0 1 0 15 0 a7.5 7.5 0 1 0 -15 0zM781.83 521.05 a7.5 7.5 0 1 0 15 0 a7.5 7.5 0 1 0 -15 0zM846.79 558.55 a7.5 7.5 0 1 0 15 0 a7.5 7.5 0 1 0 -15 0zM846.79 633.55 a7.5 7.5 0 1 0 15 0 a7.5 7.5 0 1 0 -15 0zM781.83 671.05 a7.5 7.5 0 1 0 15 0 a7.5 7.5 0 1 0 -15 0zM781.83 746.05 a7.5 7.5 0 1 0 15 0 a7.5 7.5 0 1 0 -15 0zM716.88 783.55 a7.5 7.5 0 1 0 15 0 a7.5 7.5 0 1 0 -15 0zM846.79 783.55 a7.5 7.5 0 1 0 15 0 a7.5 7.5 0 1 0 -15 0zM846.79 858.55 a7.5 7.5 0 1 0 15 0 a7.5 7.5 0 1 0 -15 0zM781.83 896.05 a7.5 7.5 0 1 0 15 0 a7.5 7.5 0 1 0 -15 0zM716.88 858.55 a7.5 7.5 0 1 0 15 0 a7.5 7.5 0 1 0 -15 0zM911.74 71.05 a7.5 7.5 0 1 0 15 0 a7.5 7.5 0 1 0 -15 0zM976.69 108.55 a7.5 7.5 0 1 0 15 0 a7.5 7.5 0 1 0 -15 0zM976.69 183.55 a7.5 7.5 0 1 0 15 0 a7.5 7.5 0 1 0 -15 0zM911.74 221.05 a7.5 7.5 0 1 0 15 0 a7.5 7.5 0 1 0 -15 0zM846.78 183.55 a7.5 7.5 0 1 0 15 0 a7.5 7.5 0 1 0 -15 0zM846.78 108.55 a7.5 7.5 0 1 0 15 0 a7.5 7.5 0 1 0 -15 0zM911.74 296.05 a7.5 7.5 0 1 0 15 0 a7.5 7.5 0 1 0 -15 0zM976.69 333.55 a7.5 7.5 0 1 0 15 0 a7.5 7.5 0 1 0 -15 0zM976.69 408.55 a7.5 7.5 0 1 0 15 0 a7.5 7.5 0 1 0 -15 0zM911.74 446.05 a7.5 7.5 0 1 0 15 0 a7.5 7.5 0 1 0 -15 0zM846.78 408.55 a7.5 7.5 0 1 0 15 0 a7.5 7.5 0 1 0 -15 0zM846.78 333.55 a7.5 7.5 0 1 0 15 0 a7.5 7.5 0 1 0 -15 0zM911.74 521.05 a7.5 7.5 0 1 0 15 0 a7.5 7.5 0 1 0 -15 0zM846.78 558.55 a7.5 7.5 0 1 0 15 0 a7.5 7.5 0 1 0 -15 0zM846.78 858.55 a7.5 7.5 0 1 0 15 0 a7.5 7.5 0 1 0 -15 0zM911.74 896.05 a7.5 7.5 0 1 0 15 0 a7.5 7.5 0 1 0 -15 0zM911.74 971.05 a7.5 7.5 0 1 0 15 0 a7.5 7.5 0 1 0 -15 0zM846.78 1008.55 a7.5 7.5 0 1 0 15 0 a7.5 7.5 0 1 0 -15 0zM781.83 971.05 a7.5 7.5 0 1 0 15 0 a7.5 7.5 0 1 0 -15 0zM1041.65 71.05 a7.5 7.5 0 1 0 15 0 a7.5 7.5 0 1 0 -15 0zM1106.6 108.55 a7.5 7.5 0 1 0 15 0 a7.5 7.5 0 1 0 -15 0zM1106.6 183.55 a7.5 7.5 0 1 0 15 0 a7.5 7.5 0 1 0 -15 0zM1041.65 221.05 a7.5 7.5 0 1 0 15 0 a7.5 7.5 0 1 0 -15 0zM1041.65 296.05 a7.5 7.5 0 1 0 15 0 a7.5 7.5 0 1 0 -15 0zM1106.6 333.55 a7.5 7.5 0 1 0 15 0 a7.5 7.5 0 1 0 -15 0zM1106.6 408.55 a7.5 7.5 0 1 0 15 0 a7.5 7.5 0 1 0 -15 0zM1041.65 446.05 a7.5 7.5 0 1 0 15 0 a7.5 7.5 0 1 0 -15 0zM1041.65 521.05 a7.5 7.5 0 1 0 15 0 a7.5 7.5 0 1 0 -15 0zM1106.6 558.55 a7.5 7.5 0 1 0 15 0 a7.5 7.5 0 1 0 -15 0zM1106.6 633.55 a7.5 7.5 0 1 0 15 0 a7.5 7.5 0 1 0 -15 0zM1041.65 671.05 a7.5 7.5 0 1 0 15 0 a7.5 7.5 0 1 0 -15 0zM976.69 633.55 a7.5 7.5 0 1 0 15 0 a7.5 7.5 0 1 0 -15 0zM976.69 558.55 a7.5 7.5 0 1 0 15 0 a7.5 7.5 0 1 0 -15 0zM1041.65 746.05 a7.5 7.5 0 1 0 15 0 a7.5 7.5 0 1 0 -15 0zM976.69 783.55 a7.5 7.5 0 1 0 15 0 a7.5 7.5 0 1 0 -15 0zM911.74 746.05 a7.5 7.5 0 1 0 15 0 a7.5 7.5 0 1 0 -15 0zM911.74 671.05 a7.5 7.5 0 1 0 15 0 a7.5 7.5 0 1 0 -15 0zM1106.6 783.55 a7.5 7.5 0 1 0 15 0 a7.5 7.5 0 1 0 -15 0zM1106.6 858.55 a7.5 7.5 0 1 0 15 0 a7.5 7.5 0 1 0 -15 0zM1041.65 896.05 a7.5 7.5 0 1 0 15 0 a7.5 7.5 0 1 0 -15 0zM976.69 858.55 a7.5 7.5 0 1 0 15 0 a7.5 7.5 0 1 0 -15 0zM1106.6 -41.45 a7.5 7.5 0 1 0 15 0 a7.5 7.5 0 1 0 -15 0zM1171.55 -3.95 a7.5 7.5 0 1 0 15 0 a7.5 7.5 0 1 0 -15 0zM1171.55 71.05 a7.5 7.5 0 1 0 15 0 a7.5 7.5 0 1 0 -15 0zM1041.65 -3.95 a7.5 7.5 0 1 0 15 0 a7.5 7.5 0 1 0 -15 0zM1171.55 221.05 a7.5 7.5 0 1 0 15 0 a7.5 7.5 0 1 0 -15 0zM1171.55 296.05 a7.5 7.5 0 1 0 15 0 a7.5 7.5 0 1 0 -15 0zM1171.55 446.05 a7.5 7.5 0 1 0 15 0 a7.5 7.5 0 1 0 -15 0zM1171.55 521.05 a7.5 7.5 0 1 0 15 0 a7.5 7.5 0 1 0 -15 0zM1171.55 746.05 a7.5 7.5 0 1 0 15 0 a7.5 7.5 0 1 0 -15 0zM1236.51 783.55 a7.5 7.5 0 1 0 15 0 a7.5 7.5 0 1 0 -15 0zM1236.51 858.55 a7.5 7.5 0 1 0 15 0 a7.5 7.5 0 1 0 -15 0zM1171.55 896.05 a7.5 7.5 0 1 0 15 0 a7.5 7.5 0 1 0 -15 0zM1171.55 971.05 a7.5 7.5 0 1 0 15 0 a7.5 7.5 0 1 0 -15 0zM1106.6 1008.55 a7.5 7.5 0 1 0 15 0 a7.5 7.5 0 1 0 -15 0zM1041.65 971.05 a7.5 7.5 0 1 0 15 0 a7.5 7.5 0 1 0 -15 0zM1236.51 408.55 a7.5 7.5 0 1 0 15 0 a7.5 7.5 0 1 0 -15 0zM1301.46 446.05 a7.5 7.5 0 1 0 15 0 a7.5 7.5 0 1 0 -15 0zM1301.46 521.05 a7.5 7.5 0 1 0 15 0 a7.5 7.5 0 1 0 -15 0zM1236.51 558.55 a7.5 7.5 0 1 0 15 0 a7.5 7.5 0 1 0 -15 0zM1366.41 -41.45 a7.5 7.5 0 1 0 15 0 a7.5 7.5 0 1 0 -15 0zM1431.37 -3.95 a7.5 7.5 0 1 0 15 0 a7.5 7.5 0 1 0 -15 0zM1431.37 71.05 a7.5 7.5 0 1 0 15 0 a7.5 7.5 0 1 0 -15 0zM1366.41 108.55 a7.5 7.5 0 1 0 15 0 a7.5 7.5 0 1 0 -15 0zM1301.46 71.05 a7.5 7.5 0 1 0 15 0 a7.5 7.5 0 1 0 -15 0zM1301.46 -3.95 a7.5 7.5 0 1 0 15 0 a7.5 7.5 0 1 0 -15 0zM1431.37 296.05 a7.5 7.5 0 1 0 15 0 a7.5 7.5 0 1 0 -15 0zM1496.32 333.55 a7.5 7.5 0 1 0 15 0 a7.5 7.5 0 1 0 -15 0zM1496.32 408.55 a7.5 7.5 0 1 0 15 0 a7.5 7.5 0 1 0 -15 0zM1431.37 446.05 a7.5 7.5 0 1 0 15 0 a7.5 7.5 0 1 0 -15 0zM1366.41 408.55 a7.5 7.5 0 1 0 15 0 a7.5 7.5 0 1 0 -15 0zM1366.41 333.55 a7.5 7.5 0 1 0 15 0 a7.5 7.5 0 1 0 -15 0zM1431.37 521.05 a7.5 7.5 0 1 0 15 0 a7.5 7.5 0 1 0 -15 0zM1496.32 558.55 a7.5 7.5 0 1 0 15 0 a7.5 7.5 0 1 0 -15 0zM1496.32 633.55 a7.5 7.5 0 1 0 15 0 a7.5 7.5 0 1 0 -15 0zM1431.37 671.05 a7.5 7.5 0 1 0 15 0 a7.5 7.5 0 1 0 -15 0zM1366.41 633.55 a7.5 7.5 0 1 0 15 0 a7.5 7.5 0 1 0 -15 0zM1366.41 558.55 a7.5 7.5 0 1 0 15 0 a7.5 7.5 0 1 0 -15 0zM1431.37 746.05 a7.5 7.5 0 1 0 15 0 a7.5 7.5 0 1 0 -15 0zM1366.41 783.55 a7.5 7.5 0 1 0 15 0 a7.5 7.5 0 1 0 -15 0zM1301.46 746.05 a7.5 7.5 0 1 0 15 0 a7.5 7.5 0 1 0 -15 0zM1301.46 671.05 a7.5 7.5 0 1 0 15 0 a7.5 7.5 0 1 0 -15 0zM1366.41 858.55 a7.5 7.5 0 1 0 15 0 a7.5 7.5 0 1 0 -15 0zM1431.37 896.05 a7.5 7.5 0 1 0 15 0 a7.5 7.5 0 1 0 -15 0zM1431.37 971.05 a7.5 7.5 0 1 0 15 0 a7.5 7.5 0 1 0 -15 0zM1366.41 1008.55 a7.5 7.5 0 1 0 15 0 a7.5 7.5 0 1 0 -15 0zM1301.46 971.05 a7.5 7.5 0 1 0 15 0 a7.5 7.5 0 1 0 -15 0zM1301.46 896.05 a7.5 7.5 0 1 0 15 0 a7.5 7.5 0 1 0 -15 0zM1496.32 183.55 a7.5 7.5 0 1 0 15 0 a7.5 7.5 0 1 0 -15 0zM1561.28 221.05 a7.5 7.5 0 1 0 15 0 a7.5 7.5 0 1 0 -15 0zM1561.28 296.05 a7.5 7.5 0 1 0 15 0 a7.5 7.5 0 1 0 -15 0zM1431.37 221.05 a7.5 7.5 0 1 0 15 0 a7.5 7.5 0 1 0 -15 0zM1561.28 446.05 a7.5 7.5 0 1 0 15 0 a7.5 7.5 0 1 0 -15 0zM1561.28 521.05 a7.5 7.5 0 1 0 15 0 a7.5 7.5 0 1 0 -15 0zM1626.23 558.55 a7.5 7.5 0 1 0 15 0 a7.5 7.5 0 1 0 -15 0zM1626.23 633.55 a7.5 7.5 0 1 0 15 0 a7.5 7.5 0 1 0 -15 0zM1561.28 671.05 a7.5 7.5 0 1 0 15 0 a7.5 7.5 0 1 0 -15 0zM1496.32 858.55 a7.5 7.5 0 1 0 15 0 a7.5 7.5 0 1 0 -15 0zM1561.28 896.05 a7.5 7.5 0 1 0 15 0 a7.5 7.5 0 1 0 -15 0zM1561.28 971.05 a7.5 7.5 0 1 0 15 0 a7.5 7.5 0 1 0 -15 0zM1496.32 1008.55 a7.5 7.5 0 1 0 15 0 a7.5 7.5 0 1 0 -15 0z" fill="#03305d"></path><path d="M3.92 578.07L47.22 603.07L47.22 653.07L3.92 678.07L-39.38 653.07L-39.38 603.07zM47.22 803.07L90.53 828.07L90.53 878.07L47.22 903.07L3.92 878.07L3.92 828.07zM133.83 53.07L177.13 78.07L177.13 128.07L133.83 153.07L90.53 128.07L90.53 78.07zM133.83 203.07L177.13 228.07L177.13 278.07L133.83 303.07L90.53 278.07L90.53 228.07zM90.53 278.07L133.83 303.07L133.83 353.07L90.53 378.07L47.22 353.07L47.22 303.07zM133.83 353.07L177.13 378.07L177.13 428.07L133.83 453.07L90.53 428.07L90.53 378.07zM90.53 578.07L133.83 603.07L133.83 653.07L90.53 678.07L47.22 653.07L47.22 603.07zM90.53 728.07L133.83 753.07L133.83 803.07L90.53 828.07L47.22 803.07L47.22 753.07zM133.83 803.07L177.13 828.07L177.13 878.07L133.83 903.07L90.53 878.07L90.53 828.07zM177.13 -21.93L220.43 3.07L220.43 53.07L177.13 78.07L133.83 53.07L133.83 3.07zM220.43 53.07L263.74 78.07L263.74 128.07L220.43 153.07L177.13 128.07L177.13 78.07zM177.13 128.07L220.43 153.07L220.43 203.07L177.13 228.07L133.83 203.07L133.83 153.07zM177.13 278.07L220.43 303.07L220.43 353.07L177.13 378.07L133.83 353.07L133.83 303.07zM177.13 578.07L220.43 603.07L220.43 653.07L177.13 678.07L133.83 653.07L133.83 603.07zM177.13 728.07L220.43 753.07L220.43 803.07L177.13 828.07L133.83 803.07L133.83 753.07zM263.74 -21.93L307.04 3.07L307.04 53.07L263.74 78.07L220.43 53.07L220.43 3.07zM263.74 128.07L307.04 153.07L307.04 203.07L263.74 228.07L220.43 203.07L220.43 153.07zM263.74 428.07L307.04 453.07L307.04 503.07L263.74 528.07L220.43 503.07L220.43 453.07zM307.04 653.07L350.34 678.07L350.34 728.07L307.04 753.07L263.74 728.07L263.74 678.07zM350.34 428.07L393.64 453.07L393.64 503.07L350.34 528.07L307.04 503.07L307.04 453.07zM393.64 803.07L436.95 828.07L436.95 878.07L393.64 903.07L350.34 878.07L350.34 828.07zM480.25 353.07L523.55 378.07L523.55 428.07L480.25 453.07L436.95 428.07L436.95 378.07zM436.95 428.07L480.25 453.07L480.25 503.07L436.95 528.07L393.64 503.07L393.64 453.07zM436.95 728.07L480.25 753.07L480.25 803.07L436.95 828.07L393.64 803.07L393.64 753.07zM480.25 803.07L523.55 828.07L523.55 878.07L480.25 903.07L436.95 878.07L436.95 828.07zM523.55 -21.93L566.85 3.07L566.85 53.07L523.55 78.07L480.25 53.07L480.25 3.07zM523.55 128.07L566.85 153.07L566.85 203.07L523.55 228.07L480.25 203.07L480.25 153.07zM566.85 353.07L610.15 378.07L610.15 428.07L566.85 453.07L523.55 428.07L523.55 378.07zM566.85 503.07L610.15 528.07L610.15 578.07L566.85 603.07L523.55 578.07L523.55 528.07zM523.55 578.07L566.85 603.07L566.85 653.07L523.55 678.07L480.25 653.07L480.25 603.07zM566.85 653.07L610.15 678.07L610.15 728.07L566.85 753.07L523.55 728.07L523.55 678.07zM610.15 128.07L653.46 153.07L653.46 203.07L610.15 228.07L566.85 203.07L566.85 153.07zM653.46 353.07L696.76 378.07L696.76 428.07L653.46 453.07L610.15 428.07L610.15 378.07zM653.46 503.07L696.76 528.07L696.76 578.07L653.46 603.07L610.15 578.07L610.15 528.07zM696.76 -21.93L740.06 3.07L740.06 53.07L696.76 78.07L653.46 53.07L653.46 3.07zM740.06 53.07L783.37 78.07L783.37 128.07L740.06 153.07L696.76 128.07L696.76 78.07zM740.06 353.07L783.37 378.07L783.37 428.07L740.06 453.07L696.76 428.07L696.76 378.07zM696.76 428.07L740.06 453.07L740.06 503.07L696.76 528.07L653.46 503.07L653.46 453.07zM783.37 -21.93L826.67 3.07L826.67 53.07L783.37 78.07L740.06 53.07L740.06 3.07zM783.37 578.07L826.67 603.07L826.67 653.07L783.37 678.07L740.06 653.07L740.06 603.07zM826.67 803.07L869.97 828.07L869.97 878.07L826.67 903.07L783.37 878.07L783.37 828.07zM869.97 -21.93L913.27 3.07L913.27 53.07L869.97 78.07L826.67 53.07L826.67 3.07zM869.97 128.07L913.27 153.07L913.27 203.07L869.97 228.07L826.67 203.07L826.67 153.07zM869.97 278.07L913.27 303.07L913.27 353.07L869.97 378.07L826.67 353.07L826.67 303.07zM869.97 428.07L913.27 453.07L913.27 503.07L869.97 528.07L826.67 503.07L826.67 453.07zM913.27 653.07L956.58 678.07L956.58 728.07L913.27 753.07L869.97 728.07L869.97 678.07zM999.88 53.07L1043.18 78.07L1043.18 128.07L999.88 153.07L956.58 128.07L956.58 78.07zM956.58 128.07L999.88 153.07L999.88 203.07L956.58 228.07L913.27 203.07L913.27 153.07zM999.88 353.07L1043.18 378.07L1043.18 428.07L999.88 453.07L956.58 428.07L956.58 378.07zM956.58 728.07L999.88 753.07L999.88 803.07L956.58 828.07L913.27 803.07L913.27 753.07zM999.88 803.07L1043.18 828.07L1043.18 878.07L999.88 903.07L956.58 878.07L956.58 828.07zM1043.18 -21.93L1086.48 3.07L1086.48 53.07L1043.18 78.07L999.88 53.07L999.88 3.07zM1043.18 128.07L1086.48 153.07L1086.48 203.07L1043.18 228.07L999.88 203.07L999.88 153.07zM1086.48 503.07L1129.79 528.07L1129.79 578.07L1086.48 603.07L1043.18 578.07L1043.18 528.07zM1086.48 653.07L1129.79 678.07L1129.79 728.07L1086.48 753.07L1043.18 728.07L1043.18 678.07zM1086.48 803.07L1129.79 828.07L1129.79 878.07L1086.48 903.07L1043.18 878.07L1043.18 828.07zM1173.09 203.07L1216.39 228.07L1216.39 278.07L1173.09 303.07L1129.79 278.07L1129.79 228.07zM1173.09 353.07L1216.39 378.07L1216.39 428.07L1173.09 453.07L1129.79 428.07L1129.79 378.07zM1173.09 653.07L1216.39 678.07L1216.39 728.07L1173.09 753.07L1129.79 728.07L1129.79 678.07zM1216.39 -21.93L1259.69 3.07L1259.69 53.07L1216.39 78.07L1173.09 53.07L1173.09 3.07zM1216.39 128.07L1259.69 153.07L1259.69 203.07L1216.39 228.07L1173.09 203.07L1173.09 153.07zM1259.69 203.07L1303 228.07L1303 278.07L1259.69 303.07L1216.39 278.07L1216.39 228.07zM1216.39 428.07L1259.69 453.07L1259.69 503.07L1216.39 528.07L1173.09 503.07L1173.09 453.07zM1259.69 503.07L1303 528.07L1303 578.07L1259.69 603.07L1216.39 578.07L1216.39 528.07zM1216.39 578.07L1259.69 603.07L1259.69 653.07L1216.39 678.07L1173.09 653.07L1173.09 603.07zM1259.69 803.07L1303 828.07L1303 878.07L1259.69 903.07L1216.39 878.07L1216.39 828.07zM1346.3 53.07L1389.6 78.07L1389.6 128.07L1346.3 153.07L1303 128.07L1303 78.07zM1303 278.07L1346.3 303.07L1346.3 353.07L1303 378.07L1259.69 353.07L1259.69 303.07zM1346.3 353.07L1389.6 378.07L1389.6 428.07L1346.3 453.07L1303 428.07L1303 378.07zM1303 578.07L1346.3 603.07L1346.3 653.07L1303 678.07L1259.69 653.07L1259.69 603.07zM1432.9 53.07L1476.21 78.07L1476.21 128.07L1432.9 153.07L1389.6 128.07L1389.6 78.07zM1389.6 128.07L1432.9 153.07L1432.9 203.07L1389.6 228.07L1346.3 203.07L1346.3 153.07zM1432.9 353.07L1476.21 378.07L1476.21 428.07L1432.9 453.07L1389.6 428.07L1389.6 378.07zM1389.6 428.07L1432.9 453.07L1432.9 503.07L1389.6 528.07L1346.3 503.07L1346.3 453.07zM1432.9 503.07L1476.21 528.07L1476.21 578.07L1432.9 603.07L1389.6 578.07L1389.6 528.07zM1389.6 578.07L1432.9 603.07L1432.9 653.07L1389.6 678.07L1346.3 653.07L1346.3 603.07zM1432.9 803.07L1476.21 828.07L1476.21 878.07L1432.9 903.07L1389.6 878.07L1389.6 828.07z" stroke="rgba(6, 80, 156, 0.93)" stroke-width="2"></path></g><defs><mask id="SvgjsMask1002"><rect width="1440" height="860" fill="#ffffff"></rect></mask></defs></svg>